mtllib MissionMarker.mtl
g object_12EB424


v 5 0 0 
v 4.619398 0 -1.913417 
v 3.535534 0 -3.535534 
v 1.913417 0 -4.619398 
v -1E-06 0 -5 
v -1.913418 0 -4.619397 
v -3.535534 0 -3.535533 
v -4.619398 0 -1.913416 
v -5 0 1E-06 
v -4.619397 0 1.913418 
v -3.535532 0 3.535535 
v -1.913415 0 4.619398 
v 2E-06 0 5 
v 1.913419 0 4.619396 
v 3.535535 0 3.535532 
v 4.619398 0 1.913414 
v -4.041972 0 1.674241 
v -4.375 0 1E-06 
v -4.041973 0 -1.674239 
v -3.093592 0 -3.093591 
v -1.67424 0 -4.041972 
v -1E-06 0 -4.375 
v 1.67424 0 -4.041973 
v 3.093592 0 -3.093592 
v 4.041973 0 -1.67424 
v 4.375 0 0 
v 4.041973 0 1.674237 
v 3.093593 0 3.09359 
v 1.674242 0 4.041972 
v 2E-06 0 4.375 
v -1.674238 0 4.041973 
v -3.093591 0 3.093593 
v -1.793827 0.25 4.330686 
v -3.314561 0.25 3.314564 
v -4.330685 0.25 1.79383 
v -4.6875 0.25 1E-06 
v -4.330686 0.25 -1.793827 
v -3.314563 0.25 -3.314562 
v -1.793829 0.25 -4.330685 
v -1E-06 0.25 -4.6875 
v 1.793828 0.25 -4.330686 
v 3.314563 0.25 -3.314563 
v 4.330686 0.25 -1.793829 
v 4.6875 0.25 0 
v 4.330686 0.25 1.793826 
v 3.314564 0.25 3.314561 
v 1.79383 0.25 4.330684 
v 2E-06 0.25 4.6875 

vn 0.6246949 0.7808689 0 
vn 0.577143 0.7808689 -0.239061 
vn 0.441726 0.7808689 -0.441726 
vn 0.23906 0.7808689 -0.577143 
vn 0 0.7808689 -0.6246949 
vn -0.239061 0.7808689 -0.577143 
vn -0.441726 0.7808689 -0.441726 
vn -0.577143 0.7808689 -0.23906 
vn -0.6246949 0.7808689 0 
vn -0.577143 0.7808689 0.239061 
vn -0.441726 0.7808689 0.441726 
vn -0.23906 0.7808689 0.577143 
vn 0 0.7808689 0.6246949 
vn 0.239061 0.7808689 0.577143 
vn 0.441726 0.7808689 0.441726 
vn 0.577143 0.7808689 0.23906 
vn 0.577143 0.7808689 -0.239061 
vn 0.6246949 0.7808689 0 
vn 0.577143 0.7808689 0.23906 
vn 0.441726 0.7808689 0.441726 
vn 0.239061 0.7808689 0.577143 
vn 0 0.7808689 0.6246949 
vn -0.23906 0.7808689 0.577143 
vn -0.441726 0.7808689 0.441726 
vn -0.577143 0.7808689 0.23906 
vn -0.6246949 0.7808689 0 
vn -0.577143 0.7808689 -0.23906 
vn -0.441726 0.7808689 -0.441726 
vn -0.239061 0.7808689 -0.577143 
vn 0 0.7808689 -0.6246949 
vn 0.23906 0.7808689 -0.577143 
vn 0.441726 0.7808689 -0.441726 
vn -0.029717 0.99698 0.07174299 
vn -0.05491 0.99698 0.05491 
vn -0.07174299 0.99698 0.029717 
vn -0.07765399 0.99698 0 
vn -0.07174299 0.99698 -0.029717 
vn -0.05491 0.99698 -0.05491 
vn -0.029717 0.99698 -0.07174299 
vn 0 0.99698 -0.07765399 
vn 0.029717 0.99698 -0.07174299 
vn 0.05491 0.99698 -0.05491 
vn 0.07174299 0.99698 -0.029717 
vn 0.07765399 0.99698 0 
vn 0.07174299 0.99698 0.029717 
vn 0.05491 0.99698 0.05491 
vn 0.029717 0.99698 0.07174299 
vn 0 0.99698 0.07765399 

vc 255 255 255 255 
vc 255 255 255 255 
vc 255 255 255 255 
vc 255 255 255 255 
vc 255 255 255 255 
vc 255 255 255 255 
vc 255 255 255 255 
vc 255 255 255 255 
vc 255 255 255 255 
vc 255 255 255 255 
vc 255 255 255 255 
vc 255 255 255 255 
vc 255 255 255 255 
vc 255 255 255 255 
vc 255 255 255 255 
vc 255 255 255 255 
vc 255 255 255 255 
vc 255 255 255 255 
vc 255 255 255 255 
vc 255 255 255 255 
vc 255 255 255 255 
vc 255 255 255 255 
vc 255 255 255 255 
vc 255 255 255 255 
vc 255 255 255 255 
vc 255 255 255 255 
vc 255 255 255 255 
vc 255 255 255 255 
vc 255 255 255 255 
vc 255 255 255 255 
vc 255 255 255 255 
vc 255 255 255 255 
vc 255 255 255 255 
vc 255 255 255 255 
vc 255 255 255 255 
vc 255 255 255 255 
vc 255 255 255 255 
vc 255 255 255 255 
vc 255 255 255 255 
vc 255 255 255 255 
vc 255 255 255 255 
vc 255 255 255 255 
vc 255 255 255 255 
vc 255 255 255 255 
vc 255 255 255 255 
vc 255 255 255 255 
vc 255 255 255 255 
vc 255 255 255 255 
vc 255 255 255 255 
vc 255 255 255 255 
vc 255 255 255 255 
vc 255 255 255 255 
vc 255 255 255 255 
vc 255 255 255 255 
vc 255 255 255 255 
vc 255 255 255 255 
vc 255 255 255 255 
vc 255 255 255 255 
vc 255 255 255 255 
vc 255 255 255 255 
vc 255 255 255 255 
vc 255 255 255 255 
vc 255 255 255 255 
vc 255 255 255 255 
vc 255 255 255 255 
vc 255 255 255 255 
vc 255 255 255 255 
vc 255 255 255 255 
vc 255 255 255 255 
vc 255 255 255 255 
vc 255 255 255 255 
vc 255 255 255 255 
vc 255 255 255 255 
vc 255 255 255 255 
vc 255 255 255 255 
vc 255 255 255 255 
vc 255 255 255 255 
vc 255 255 255 255 
vc 255 255 255 255 
vc 255 255 255 255 
vc 255 255 255 255 
vc 255 255 255 255 
vc 255 255 255 255 
vc 255 255 255 255 
vc 255 255 255 255 
vc 255 255 255 255 
vc 255 255 255 255 
vc 255 255 255 255 
vc 255 255 255 255 
vc 255 255 255 255 
vc 255 255 255 255 
vc 255 255 255 255 
vc 255 255 255 255 
vc 255 255 255 255 
vc 255 255 255 255 
vc 255 255 255 255 

vt 0.529411792755127 -0.0588235296308994 
vt 0.717647075653076 -0.0588235296308994 
vt 0.529411792755127 -0.937254905700684 
vt 0.717647075653076 -0.937254905700684 
vt 0.529411792755127 -0.0588235296308994 
vt 0.717647075653076 -0.0588235296308994 
vt 0.529411792755127 -0.0588235296308994 
vt 0.717647075653076 -0.0588235296308994 
vt 0.529411792755127 -0.937254905700684 
vt 0.717647075653076 -0.937254905700684 
vt 0.529411792755127 -0.0588235296308994 
vt 0.717647075653076 -0.0588235296308994 
vt 0.717647075653076 -0.0588235296308994 
vt 0.529411792755127 -0.0588235296308994 
vt 0.717647075653076 -0.937254905700684 
vt 0.529411792755127 -0.937254905700684 
vt 0.717647075653076 -0.0588235296308994 
vt 0.529411792755127 -0.0588235296308994 
vt 0.717647075653076 -0.0588235296308994 
vt 0.529411792755127 -0.0588235296308994 
vt 0.717647075653076 -0.937254905700684 
vt 0.529411792755127 -0.937254905700684 
vt 0.717647075653076 -0.0588235296308994 
vt 0.529411792755127 -0.0588235296308994 
vt 0.717647075653076 -0.0588235296308994 
vt 0.529411792755127 -0.0588235296308994 
vt 0.717647075653076 -0.937254905700684 
vt 0.529411792755127 -0.937254905700684 
vt 0.717647075653076 -0.0588235296308994 
vt 0.529411792755127 -0.0588235296308994 
vt 0.717647075653076 -0.0588235296308994 
vt 0.529411792755127 -0.0588235296308994 
vt 0.717647075653076 -0.937254905700684 
vt 0.529411792755127 -0.937254905700684 
vt 0.717647075653076 -0.0588235296308994 
vt 0.529411792755127 -0.0588235296308994 
vt 0.717647075653076 -0.0588235296308994 
vt 0.529411792755127 -0.0588235296308994 
vt 0.717647075653076 -0.937254905700684 
vt 0.529411792755127 -0.937254905700684 
vt 0.717647075653076 -0.0588235296308994 
vt 0.529411792755127 -0.0588235296308994 
vt 0.717647075653076 -0.0588235296308994 
vt 0.529411792755127 -0.0588235296308994 
vt 0.717647075653076 -0.937254905700684 
vt 0.529411792755127 -0.937254905700684 
vt 0.717647075653076 -0.0588235296308994 
vt 0.529411792755127 -0.0588235296308994 
vt 0.717647075653076 -0.0588235296308994 
vt 0.529411792755127 -0.0588235296308994 
vt 0.717647075653076 -0.937254905700684 
vt 0.529411792755127 -0.937254905700684 
vt 0.717647075653076 -0.0588235296308994 
vt 0.529411792755127 -0.0588235296308994 
vt 0.717647075653076 -0.0588235296308994 
vt 0.529411792755127 -0.0588235296308994 
vt 0.717647075653076 -0.937254905700684 
vt 0.529411792755127 -0.937254905700684 
vt 0.717647075653076 -0.0588235296308994 
vt 0.529411792755127 -0.0588235296308994 
vt 0.717647075653076 -0.0588235296308994 
vt 0.529411792755127 -0.0588235296308994 
vt 0.717647075653076 -0.937254905700684 
vt 0.529411792755127 -0.937254905700684 
vt 0.717647075653076 -0.0588235296308994 
vt 0.529411792755127 -0.0588235296308994 
vt 0.717647075653076 -0.0588235296308994 
vt 0.529411792755127 -0.0588235296308994 
vt 0.717647075653076 -0.937254905700684 
vt 0.529411792755127 -0.937254905700684 
vt 0.717647075653076 -0.0588235296308994 
vt 0.529411792755127 -0.0588235296308994 
vt 0.717647075653076 -0.0588235296308994 
vt 0.529411792755127 -0.0588235296308994 
vt 0.717647075653076 -0.937254905700684 
vt 0.529411792755127 -0.937254905700684 
vt 0.717647075653076 -0.0588235296308994 
vt 0.529411792755127 -0.0588235296308994 
vt 0.717647075653076 -0.0588235296308994 
vt 0.529411792755127 -0.0588235296308994 
vt 0.717647075653076 -0.937254905700684 
vt 0.529411792755127 -0.937254905700684 
vt 0.717647075653076 -0.0588235296308994 
vt 0.529411792755127 -0.0588235296308994 
vt 0.717647075653076 -0.0588235296308994 
vt 0.529411792755127 -0.0588235296308994 
vt 0.717647075653076 -0.937254905700684 
vt 0.529411792755127 -0.937254905700684 
vt 0.717647075653076 -0.0588235296308994 
vt 0.529411792755127 -0.0588235296308994 
vt 0.529411792755127 -0.0588235296308994 
vt 0.717647075653076 -0.0588235296308994 
vt 0.529411792755127 -0.937254905700684 
vt 0.717647075653076 -0.937254905700684 
vt 0.529411792755127 -0.0588235296308994 
vt 0.717647075653076 -0.0588235296308994 

usemtl material_12EACE0

f 10/2/10 11/1/11 34/3/34
f 10/2/10 34/3/34 35/4/35
f 35/4/35 34/3/34 32/5/32
f 35/4/35 32/5/32 17/6/17

f 9/8/9 10/7/10 35/9/35
f 9/8/9 35/9/35 36/10/36
f 36/10/36 35/9/35 17/11/17
f 36/10/36 17/11/17 18/12/18

f 31/14/31 32/13/32 34/15/34
f 31/14/31 34/15/34 33/16/33
f 33/16/33 34/15/34 11/17/11
f 33/16/33 11/17/11 12/18/12

f 18/20/18 19/19/19 37/21/37
f 18/20/18 37/21/37 36/22/36
f 36/22/36 37/21/37 8/23/8
f 36/22/36 8/23/8 9/24/9

f 19/26/19 20/25/20 38/27/38
f 19/26/19 38/27/38 37/28/37
f 37/28/37 38/27/38 7/29/7
f 37/28/37 7/29/7 8/30/8

f 20/32/20 21/31/21 39/33/39
f 20/32/20 39/33/39 38/34/38
f 38/34/38 39/33/39 6/35/6
f 38/34/38 6/35/6 7/36/7

f 21/38/21 22/37/22 40/39/40
f 21/38/21 40/39/40 39/40/39
f 39/40/39 40/39/40 5/41/5
f 39/40/39 5/41/5 6/42/6

f 22/44/22 23/43/23 41/45/41
f 22/44/22 41/45/41 40/46/40
f 40/46/40 41/45/41 4/47/4
f 40/46/40 4/47/4 5/48/5

f 23/50/23 24/49/24 42/51/42
f 23/50/23 42/51/42 41/52/41
f 41/52/41 42/51/42 3/53/3
f 41/52/41 3/53/3 4/54/4

f 24/56/24 25/55/25 43/57/43
f 24/56/24 43/57/43 42/58/42
f 42/58/42 43/57/43 2/59/2
f 42/58/42 2/59/2 3/60/3

f 25/62/25 26/61/26 44/63/44
f 25/62/25 44/63/44 43/64/43
f 43/64/43 44/63/44 1/65/1
f 43/64/43 1/65/1 2/66/2

f 26/68/26 27/67/27 45/69/45
f 26/68/26 45/69/45 44/70/44
f 44/70/44 45/69/45 16/71/16
f 44/70/44 16/71/16 1/72/1

f 27/74/27 28/73/28 46/75/46
f 27/74/27 46/75/46 45/76/45
f 45/76/45 46/75/46 15/77/15
f 45/76/45 15/77/15 16/78/16

f 28/80/28 29/79/29 47/81/47
f 28/80/28 47/81/47 46/82/46
f 46/82/46 47/81/47 14/83/14
f 46/82/46 14/83/14 15/84/15

f 29/86/29 30/85/30 48/87/48
f 29/86/29 48/87/48 47/88/47
f 47/88/47 48/87/48 13/89/13
f 47/88/47 13/89/13 14/90/14

f 12/92/12 13/91/13 48/93/48
f 12/92/12 48/93/48 33/94/33
f 33/94/33 48/93/48 30/95/30
f 33/94/33 30/95/30 31/96/31
g object_12EACAC


v -1 0 -0.25 
v -1 0 0.25 
v -0.25 0 -1 
v -0.25 0 -0.25 
v -0.25 0 0.25 
v -0.25 0 1 
v 0.25 0 -1 
v 0.25 0 -0.25 
v 0.25 0 0.25 
v 0.25 0 1 
v 1 0 -0.25 
v 1 0 0.25 

vn 0 0.9999999 0 
vn 0 0.9999999 0 
vn 0 0.9999999 0 
vn 0 0.9999999 0 
vn 0 0.9999999 0 
vn 0 0.9999999 0 
vn 0 0.9999999 0 
vn 0 0.9999999 0 
vn 0 0.9999999 0 
vn 0 0.9999999 0 
vn 0 0.9999999 0 
vn 0 0.9999999 0 

vc 255 255 255 255 
vc 255 255 255 255 
vc 255 255 255 255 
vc 255 255 255 255 
vc 255 255 255 255 
vc 255 255 255 255 
vc 255 255 255 255 
vc 255 255 255 255 
vc 255 255 255 255 
vc 255 255 255 255 
vc 255 255 255 255 
vc 255 255 255 255 
vc 255 255 255 255 
vc 255 255 255 255 
vc 255 255 255 255 
vc 255 255 255 255 
vc 255 255 255 255 
vc 255 255 255 255 
vc 255 255 255 255 
vc 255 255 255 255 

vt 0.498039215803146 -0.498039215803146 
vt 0 -0.498039215803146 
vt 0.498039215803146 -0.0313725508749485 
vt 0 -0.0313725508749485 
vt 0 -0.0313725508749485 
vt 0.498039215803146 -0.0313725508749485 
vt 0 -0.498039215803146 
vt 0.498039215803146 -0.498039215803146 
vt 0 -0.498039215803146 
vt 0 -0.0313725508749485 
vt 0.498039215803146 -0.498039215803146 
vt 0.498039215803146 -0.0313725508749485 
vt 0.498039215803146 -0.0313725508749485 
vt 0.498039215803146 -0.498039215803146 
vt 0 -0.0313725508749485 
vt 0 -0.498039215803146 
vt 0.470588237047195 -0.0274509806185961 
vt 0.470588237047195 -0.0509803928434849 
vt 0.458823531866074 -0.0235294122248888 
vt 0.454901963472366 -0.0470588244497776 

usemtl material_12EAAA8

f 60/97/60 59/98/59 57/99/57
f 57/99/57 59/98/59 56/100/56

f 53/101/53 52/102/52 50/103/50
f 50/103/50 52/102/52 49/104/49

f 58/105/58 57/106/57 54/107/54
f 54/107/54 57/106/57 53/108/53

f 56/109/56 55/110/55 52/111/52
f 52/111/52 55/110/55 51/112/51

f 57/113/57 56/114/56 53/115/53
f 53/115/53 56/114/56 52/116/52
g object_12EAA74


v -3.946687 0 0.384909 
v -3.626018 0 0.353635 
v -3.946687 0 -0.384907 
v -3.626019 0 -0.353633 
v -3.498965 0 1.865941 
v -3.214674 0 1.714334 
v -3.793561 0 1.154724 
v -3.485334 0 1.060903 
v -3.062899 0 2.518559 
v -2.814039 0 2.313926 
v -2.313924 0 2.81404 
v -2.518557 0 3.062901 
v -1.865939 0 3.498966 
v -1.714331 0 3.214675 
v -1.060901 0 3.485334 
v -1.154722 0 3.793561 
v -0.384906 0 3.946687 
v -0.353632 0 3.626019 
v 0.353636 0 3.626018 
v 0.38491 0 3.946687 
v 1.154725 0 3.793561 
v 1.060904 0 3.485333 
v 1.714334 0 3.214673 
v 1.865942 0 3.498964 
v 2.51856 0 3.062898 
v 2.313926 0 2.814038 
v 2.81404 0 2.313923 
v 3.062901 0 2.518556 
v 3.214675 0 1.71433 
v 3.498966 0 1.865938 
v 3.485334 0 1.0609 
v 3.793562 0 1.154722 
v 3.626019 0 0.353633 
v 3.946687 0 0.384907 
v 3.626019 0 -0.353634 
v 3.946687 0 -0.384908 
v 3.485334 0 -1.060902 
v 3.793561 0 -1.154724 
v 3.214675 0 -1.714333 
v 3.498966 0 -1.86594 
v 2.814039 0 -2.313926 
v 3.0629 0 -2.518559 
v 2.313925 0 -2.814039 
v 2.518558 0 -3.062901 
v 1.86594 0 -3.498966 
v 1.714332 0 -3.214675 
v 0.353633 0 -3.626019 
v 0.384907 0 -3.946687 
v 1.154723 0 -3.793561 
v 1.060902 0 -3.485334 
v -0.384908 0 -3.946687 
v -0.353634 0 -3.626018 
v -1.060902 0 -3.485334 
v -1.154724 0 -3.793561 
v -1.865941 0 -3.498965 
v -1.714333 0 -3.214674 
v -2.313926 0 -2.814039 
v -2.518559 0 -3.062899 
v -3.498966 0 -1.865939 
v -3.214675 0 -1.714332 
v -3.062901 0 -2.518557 
v -2.814039 0 -2.313925 
v -3.485334 0 -1.060901 
v -3.793561 0 -1.154722 

vn 0 0.9999999 0 
vn 0 0.9999999 0 
vn 0 0.9999999 0 
vn 0 0.9999999 0 
vn 0 0.9999999 0 
vn 0 0.9999999 0 
vn 0 0.9999999 0 
vn 0 0.9999999 0 
vn 0 0.9999999 0 
vn 0 0.9999999 0 
vn 0 0.9999999 0 
vn 0 0.9999999 0 
vn 0 0.9999999 0 
vn 0 0.9999999 0 
vn 0 0.9999999 0 
vn 0 0.9999999 0 
vn 0 0.9999999 0 
vn 0 0.9999999 0 
vn 0 0.9999999 0 
vn 0 0.9999999 0 
vn 0 0.9999999 0 
vn 0 0.9999999 0 
vn 0 0.9999999 0 
vn 0 0.9999999 0 
vn 0 0.9999999 0 
vn 0 0.9999999 0 
vn 0 0.9999999 0 
vn 0 0.9999999 0 
vn 0 0.9999999 0 
vn 0 0.9999999 0 
vn 0 0.9999999 0 
vn 0 0.9999999 0 
vn 0 0.9999999 0 
vn 0 0.9999999 0 
vn 0 0.9999999 0 
vn 0 0.9999999 0 
vn 0 0.9999999 0 
vn 0 0.9999999 0 
vn 0 0.9999999 0 
vn 0 0.9999999 0 
vn 0 0.9999999 0 
vn 0 0.9999999 0 
vn 0 0.9999999 0 
vn 0 0.9999999 0 
vn 0 0.9999999 0 
vn 0 0.9999999 0 
vn 0 0.9999999 0 
vn 0 0.9999999 0 
vn 0 0.9999999 0 
vn 0 0.9999999 0 
vn 0 0.9999999 0 
vn 0 0.9999999 0 
vn 0 0.9999999 0 
vn 0 0.9999999 0 
vn 0 0.9999999 0 
vn 0 0.9999999 0 
vn 0 0.9999999 0 
vn 0 0.9999999 0 
vn 0 0.9999999 0 
vn 0 0.9999999 0 
vn 0 0.9999999 0 
vn 0 0.9999999 0 
vn 0 0.9999999 0 
vn 0 0.9999999 0 

vc 255 255 255 255 
vc 255 255 255 255 
vc 255 255 255 255 
vc 255 255 255 255 
vc 255 255 255 255 
vc 255 255 255 255 
vc 255 255 255 255 
vc 255 255 255 255 
vc 255 255 255 255 
vc 255 255 255 255 
vc 255 255 255 255 
vc 255 255 255 255 
vc 255 255 255 255 
vc 255 255 255 255 
vc 255 255 255 255 
vc 255 255 255 255 
vc 255 255 255 255 
vc 255 255 255 255 
vc 255 255 255 255 
vc 255 255 255 255 
vc 255 255 255 255 
vc 255 255 255 255 
vc 255 255 255 255 
vc 255 255 255 255 
vc 255 255 255 255 
vc 255 255 255 255 
vc 255 255 255 255 
vc 255 255 255 255 
vc 255 255 255 255 
vc 255 255 255 255 
vc 255 255 255 255 
vc 255 255 255 255 
vc 255 255 255 255 
vc 255 255 255 255 
vc 255 255 255 255 
vc 255 255 255 255 
vc 255 255 255 255 
vc 255 255 255 255 
vc 255 255 255 255 
vc 255 255 255 255 
vc 255 255 255 255 
vc 255 255 255 255 
vc 255 255 255 255 
vc 255 255 255 255 
vc 255 255 255 255 
vc 255 255 255 255 
vc 255 255 255 255 
vc 255 255 255 255 
vc 255 255 255 255 
vc 255 255 255 255 
vc 255 255 255 255 
vc 255 255 255 255 
vc 255 255 255 255 
vc 255 255 255 255 
vc 255 255 255 255 
vc 255 255 255 255 
vc 255 255 255 255 
vc 255 255 255 255 
vc 255 255 255 255 
vc 255 255 255 255 
vc 255 255 255 255 
vc 255 255 255 255 
vc 255 255 255 255 
vc 255 255 255 255 

vt 0.968627452850342 -0.0588235296308994 
vt 0.780392169952393 -0.0588235296308994 
vt 0.968627452850342 -0.937254905700684 
vt 0.780392169952393 -0.937254905700684 
vt 0.780392169952393 -0.937254905700684 
vt 0.968627452850342 -0.937254905700684 
vt 0.780392169952393 -0.0588235296308994 
vt 0.968627452850342 -0.0588235296308994 
vt 0.968627452850342 -0.0588235296308994 
vt 0.780392169952393 -0.0588235296308994 
vt 0.968627452850342 -0.937254905700684 
vt 0.780392169952393 -0.937254905700684 
vt 0.968627452850342 -0.0588235296308994 
vt 0.780392169952393 -0.0588235296308994 
vt 0.968627452850342 -0.937254905700684 
vt 0.780392169952393 -0.937254905700684 
vt 0.780392169952393 -0.937254905700684 
vt 0.968627452850342 -0.937254905700684 
vt 0.780392169952393 -0.0588235296308994 
vt 0.968627452850342 -0.0588235296308994 
vt 0.780392169952393 -0.937254905700684 
vt 0.968627452850342 -0.937254905700684 
vt 0.780392169952393 -0.0588235296308994 
vt 0.968627452850342 -0.0588235296308994 
vt 0.780392169952393 -0.937254905700684 
vt 0.968627452850342 -0.937254905700684 
vt 0.780392169952393 -0.0588235296308994 
vt 0.968627452850342 -0.0588235296308994 
vt 0.780392169952393 -0.937254905700684 
vt 0.968627452850342 -0.937254905700684 
vt 0.780392169952393 -0.0588235296308994 
vt 0.968627452850342 -0.0588235296308994 
vt 0.780392169952393 -0.937254905700684 
vt 0.968627452850342 -0.937254905700684 
vt 0.780392169952393 -0.0588235296308994 
vt 0.968627452850342 -0.0588235296308994 
vt 0.968627452850342 -0.0588235296308994 
vt 0.780392169952393 -0.0588235296308994 
vt 0.968627452850342 -0.937254905700684 
vt 0.780392169952393 -0.937254905700684 
vt 0.968627452850342 -0.0588235296308994 
vt 0.780392169952393 -0.0588235296308994 
vt 0.968627452850342 -0.937254905700684 
vt 0.780392169952393 -0.937254905700684 
vt 0.780392169952393 -0.937254905700684 
vt 0.968627452850342 -0.937254905700684 
vt 0.780392169952393 -0.0588235296308994 
vt 0.968627452850342 -0.0588235296308994 
vt 0.780392169952393 -0.937254905700684 
vt 0.968627452850342 -0.937254905700684 
vt 0.780392169952393 -0.0588235296308994 
vt 0.968627452850342 -0.0588235296308994 
vt 0.780392169952393 -0.937254905700684 
vt 0.968627452850342 -0.937254905700684 
vt 0.780392169952393 -0.0588235296308994 
vt 0.968627452850342 -0.0588235296308994 
vt 0.968627452850342 -0.0588235296308994 
vt 0.780392169952393 -0.0588235296308994 
vt 0.968627452850342 -0.937254905700684 
vt 0.780392169952393 -0.937254905700684 
vt 0.968627452850342 -0.0588235296308994 
vt 0.780392169952393 -0.0588235296308994 
vt 0.968627452850342 -0.937254905700684 
vt 0.780392169952393 -0.937254905700684 

usemtl material_12EA270

f 72/117/72 73/118/73 71/119/71
f 71/119/71 73/118/73 74/120/74

f 64/121/64 123/122/123 63/123/63
f 63/123/63 123/122/123 124/124/124

f 121/125/121 119/126/119 122/127/122
f 122/127/122 119/126/119 120/128/120

f 115/129/115 118/130/118 116/131/116
f 116/131/116 118/130/118 117/132/117

f 113/133/113 112/134/112 114/135/114
f 114/135/114 112/134/112 111/136/111

f 107/137/107 110/138/110 108/139/108
f 108/139/108 110/138/110 109/140/109

f 101/141/101 99/142/99 102/143/102
f 102/143/102 99/142/99 100/144/100

f 106/145/106 103/146/103 105/147/105
f 105/147/105 103/146/103 104/148/104

f 97/149/97 95/150/95 98/151/98
f 98/151/98 95/150/95 96/152/96

f 92/153/92 94/154/94 91/155/91
f 91/155/91 94/154/94 93/156/93

f 88/157/88 90/158/90 87/159/87
f 87/159/87 90/158/90 89/160/89

f 86/161/86 83/162/83 85/163/85
f 85/163/85 83/162/83 84/164/84

f 82/165/82 79/166/79 81/167/81
f 81/167/81 79/166/79 80/168/80

f 78/169/78 75/170/75 77/171/77
f 77/171/77 75/170/75 76/172/76

f 65/173/65 69/174/69 66/175/66
f 66/175/66 69/174/69 70/176/70

f 61/177/61 67/178/67 62/179/62
f 62/179/62 67/178/67 68/180/68
g object_12EA23C


v -0.707107 0 -6.25 
v 0 0 -5.278248 
v 0.707107 0 -6.25 
v 0.707107 0 6.25 
v 0 0 5.278248 
v -0.707106 0 6.25 
v 6.25 0 -0.707106 
v 5.278248 0 0 
v 6.25 0 0.707107 
v -6.25 0 0.707107 
v -5.278248 0 0 
v -6.25 0 -0.707106 
v 0 0.5 -6.25 
v 6.25 0.5 0 
v 1E-06 0.5 6.25 
v -6.25 0.5 0 

vn -0.5657009 0.8000209 -0.199872 
vn 0 0.8891979 0.457523 
vn 0.5657009 0.8000209 -0.199872 
vn 0.5657009 0.8000209 0.199872 
vn 0 0.8891979 -0.457523 
vn -0.5657009 0.8000209 0.199872 
vn 0.199872 0.8000209 -0.5657009 
vn -0.457523 0.8891979 0 
vn 0.199872 0.8000209 0.5657009 
vn -0.199872 0.8000209 0.5657009 
vn 0.457523 0.8891979 0 
vn -0.199872 0.8000209 -0.5657009 
vn 0 0.9088079 -0.417214 
vn 0.417214 0.9088079 0 
vn 0 0.9088079 0.417214 
vn -0.417214 0.9088079 0 

vc 255 255 255 255 
vc 255 255 255 255 
vc 255 255 255 255 
vc 255 255 255 255 
vc 255 255 255 255 
vc 255 255 255 255 
vc 255 255 255 255 
vc 255 255 255 255 
vc 255 255 255 255 
vc 255 255 255 255 
vc 255 255 255 255 
vc 255 255 255 255 
vc 255 255 255 255 
vc 255 255 255 255 
vc 255 255 255 255 
vc 255 255 255 255 
vc 255 255 255 255 
vc 255 255 255 255 
vc 255 255 255 255 
vc 255 255 255 255 

vt 0.0588235296308994 -0.0313725508749485 
vt 0.24705882370472 -0.937254905700684 
vt 0.24705882370472 -0.0588235296308994 
vt 0.43529412150383 -0.0313725508749485 
vt 0.0588235296308994 -0.0313725508749485 
vt 0.43529412150383 -0.0313725508749485 
vt 0.24705882370472 -0.937254905700684 
vt 0.24705882370472 -0.0588235296308994 
vt 0.0588235296308994 -0.0313725508749485 
vt 0.43529412150383 -0.0313725508749485 
vt 0.43529412150383 -0.0313725508749485 
vt 0.24705882370472 -0.937254905700684 
vt 0.24705882370472 -0.0588235296308994 
vt 0.0588235296308994 -0.0313725508749485 
vt 0.43529412150383 -0.0313725508749485 
vt 0.43529412150383 -0.0313725508749485 
vt 0.24705882370472 -0.937254905700684 
vt 0.24705882370472 -0.0588235296308994 
vt 0.0588235296308994 -0.0313725508749485 
vt 0.43529412150383 -0.0313725508749485 

usemtl material_12E9FD8

f 129/182/129 130/181/130 139/183/139
f 129/182/129 139/183/139 128/184/128
f 128/184/128 139/183/139 130/185/130

f 125/186/125 126/187/126 137/188/137
f 137/188/137 126/187/126 127/189/127
f 137/188/137 127/189/127 125/190/125

f 131/191/131 132/192/132 138/193/138
f 138/193/138 132/192/132 133/194/133
f 138/193/138 133/194/133 131/195/131

f 134/196/134 135/197/135 140/198/140
f 140/198/140 135/197/135 136/199/136
f 140/198/140 136/199/136 134/200/134
#EOF